<svg xmlns="http://www.w3.org/2000/svg" version="1.1" xmlns:xlink="http://www.w3.org/1999/xlink" width="512" height="512" x="0" y="0" viewBox="0 0 682.667 682.667" style="enable-background:new 0 0 512 512" xml:space="preserve" class=""><g><defs><clipPath id="b" clipPathUnits="userSpaceOnUse"><path d="M0 512h512V0H0Z" fill="#000000" opacity="1" data-original="#000000"></path></clipPath></defs><mask id="a"><rect width="100%" height="100%" fill="#ffffff" opacity="1" data-original="#ffffff"></rect></mask><g mask="url(#a)"><g clip-path="url(#b)" transform="matrix(1.33333 0 0 -1.33333 0 682.667)"><path d="M0 0c0-44.183-35.816-80-80-80-44.183 0-80 35.817-80 80s35.817 80 80 80C-35.816 80 0 44.183 0 0Z" style="stroke-width:40;stroke-linecap:round;stroke-linejoin:round;stroke-miterlimit:10;stroke-dasharray:none;stroke-opacity:1" transform="translate(336.138 412)" fill="none" stroke="#000000" stroke-width="40" stroke-linecap="round" stroke-linejoin="round" stroke-miterlimit="10" stroke-dasharray="none" stroke-opacity="" data-original="#000000" class=""></path><path d="M0 0h-74.863" style="stroke-width:40;stroke-linecap:round;stroke-linejoin:round;stroke-miterlimit:10;stroke-dasharray:none;stroke-opacity:1" transform="translate(293.38 20)" fill="none" stroke="#000000" stroke-width="40" stroke-linecap="round" stroke-linejoin="round" stroke-miterlimit="10" stroke-dasharray="none" stroke-opacity="" data-original="#000000" class=""></path><path d="M0 0c25.082 26.835 60.794 43.609 100.424 43.609 39.65 0 75.38-16.791 100.463-43.651" style="stroke-width:40;stroke-linecap:round;stroke-linejoin:round;stroke-miterlimit:10;stroke-dasharray:none;stroke-opacity:1" transform="translate(155.525 288.39)" fill="none" stroke="#000000" stroke-width="40" stroke-linecap="round" stroke-linejoin="round" stroke-miterlimit="10" stroke-dasharray="none" stroke-opacity="" data-original="#000000" class=""></path><path d="M0 0c0-44.183-35.817-80-80-80s-80 35.817-80 80 35.817 80 80 80S0 44.183 0 0Z" style="stroke-width:40;stroke-linecap:round;stroke-linejoin:round;stroke-miterlimit:10;stroke-dasharray:none;stroke-opacity:1" transform="translate(473.38 217.384)" fill="none" stroke="#000000" stroke-width="40" stroke-linecap="round" stroke-linejoin="round" stroke-miterlimit="10" stroke-dasharray="none" stroke-opacity="" data-original="#000000" class=""></path><path d="M0 0v17.384c0 55.228 44.771 100 100 100s100-44.772 100-100V0Z" style="stroke-width:40;stroke-linecap:round;stroke-linejoin:round;stroke-miterlimit:10;stroke-dasharray:none;stroke-opacity:1" transform="translate(293.38 20)" fill="none" stroke="#000000" stroke-width="40" stroke-linecap="round" stroke-linejoin="round" stroke-miterlimit="10" stroke-dasharray="none" stroke-opacity="" data-original="#000000" class=""></path><path d="M0 0c0-44.469-36.05-80.519-80.52-80.519-44.469 0-80.519 36.05-80.519 80.519 0 44.47 36.05 80.52 80.519 80.52C-36.05 80.52 0 44.47 0 0Z" style="stroke-width:40;stroke-linecap:round;stroke-linejoin:round;stroke-miterlimit:10;stroke-dasharray:none;stroke-opacity:1" transform="translate(199.037 216.864)" fill="none" stroke="#000000" stroke-width="40" stroke-linecap="round" stroke-linejoin="round" stroke-miterlimit="10" stroke-dasharray="none" stroke-opacity="" data-original="#000000" class=""></path><path d="M0 0v17.384c0 55.228 44.771 100 100 100s100-44.772 100-100V0Z" style="stroke-width:40;stroke-linecap:round;stroke-linejoin:round;stroke-miterlimit:10;stroke-dasharray:none;stroke-opacity:1" transform="translate(18.518 20)" fill="none" stroke="#000000" stroke-width="40" stroke-linecap="round" stroke-linejoin="round" stroke-miterlimit="10" stroke-dasharray="none" stroke-opacity="" data-original="#000000" class=""></path></g></g></g></svg>